<svg xmlns="http://www.w3.org/2000/svg" width="260" height="56" viewBox="0 0 260 56">
    <g fill="none" fill-rule="evenodd">
        <path d="M0 0h260v56H0z"/>
        <path fill="#1B3E91" d="M27.939 27.289h-1.395v-3.43h1.395c1.701 0 2.165.831 2.165 1.708s-.618 1.722-2.165 1.722zm-1.395-8.422h1.115c1.89 0 1.981 1.175 1.981 1.534 0 .532-.279 1.52-1.888 1.52h-1.208v-3.054zm-2.445 5.98v2.988c-.588-.357-1.266-.64-1.977-.954-.776-.344-1.61-.782-1.61-1.77 0-.503.31-1.251 1.795-1.251h2.753l-.961.987zm-9.47 7.638h-1.144V28.46h1.144c1.425 0 2.075.876 2.075 1.94 0 .99-.588 2.085-2.075 2.085zm15.538-9.643v-.045c.836-.269 1.95-.971 1.95-2.82 0-2.08-1.671-3.036-4.024-3.036H24.1v4.98h-2.35c-3.156 0-3.808 2.237-3.808 3.459 0 1.736.992 2.503 2.82 3.424 1.113.564 2.441.908 2.441 2.194 0 .674-.615 1.487-1.947 1.487h-2.477a3.966 3.966 0 0 0 .526-1.957c0-.796-.278-3.99-4.675-3.99H11.04v12.317h2.445v-5.366l.99 1h6.687c3.123 0 4.61-1.626 4.61-3.567 0-.69-.125-1.24-.342-1.69h2.509c3.868 0 4.766-1.943 4.766-3.465 0-1.545-.99-2.69-2.538-2.925z"/>
        <path fill="#1B3E91" d="M43.332 16.665C43.332 10.774 38.612 6 32.789 6H17.894C13.088 6 8.99 9.276 7.745 13.806H25.75c6.925 0 9.865 3.258 9.865 10.905v17.283c4.466-1.259 7.717-5.419 7.717-10.262V16.665z"/>
        <path fill="#EA5A0C" d="M0 39.135c0 5.89 4.721 10.664 10.543 10.664h14.895c4.806 0 8.905-3.276 10.15-7.805H17.581c-6.925 0-9.865-3.259-9.865-10.905V13.806C3.25 15.064 0 19.224 0 24.067v15.068z"/>
        <path fill="#1B3E91" d="M229.918 38.826V22.958h4.544v5.894h4.936v-5.894h4.481v15.868h-4.48v-7.075h-4.937v7.075zM214.501 34.294c0-2.174 1.121-3.787 3.272-4.626.97-.337 1.848-.6 2.604-.723.756-.134 1.757-.257 2.967-.43v-.501c.092-2.299-1.21-2.727-2.816-2.727-1.454 0-2.968.472-4.301 1.194l-.301-2.848a16.348 16.348 0 0 1 5.664-1.011c1.21 0 2.27.12 3.09.427 1.724.508 2.633 1.87 2.846 3.475.06.339.06.888.06 1.612v9.877c-3.935 1.533-13.085 2.559-13.085-3.72m8.874 2.025V30.68c-1.908.257-4.724.592-4.724 3.352 0 3.386 3.604 2.758 4.724 2.286M213.199 27.323c-.303-1.227-1-2.329-1.968-3.26-1.542-1.487-6.995-2.714-9.632 1.268 0-4.196 1.76-6.263 5.273-6.862 3.483-.55 5.447-.933 5.447-.933l-.332-3.4s-3.602.505-6.57 1.195c-3.21.764-6.302 3.138-7.058 7.887-.515 3.094-.454 8.44.454 10.936 1.06 2.88 3.18 5.056 7.059 5.056 5.329 0 7.781-3.31 7.781-8.489 0-1.022-.152-2.124-.454-3.398m-5.452 8.455c-.452.63-1.057.918-1.845.918-2.606 0-3.212-4.32-3.212-6.261 0-1.624.335-3.328 1.243-4.381.455-.583 1.09-.846 1.877-.846 1.032 0 1.937.63 2.395 1.899.544 1.368.666 2.775.666 4.043 0 1.655-.243 3.39-1.124 4.628M246.485 38.826V22.958h4.483v7.305l5.027-7.305h4.422l-5.12 7.09 5.636 8.778h-5l-4.965-7.89v7.89zM175.009 39.163c-1.424 0-2.938-.123-4.271-.628l.363-2.757c1.06.63 2.06.919 3.272.919 2.272 0 3.512-1.055 3.454-2.543 0-.718-.213-1.269-.699-1.655-.453-.379-.938-.595-1.573-.625-.607-.047-1.092-.093-1.515-.093h-1.091v-2.378h.303c1.666 0 4.27-.071 4.27-2.247.032-1.685-1.725-2.07-2.604-2.07-1.423 0-2.544.336-3.817 1.01l-.241-2.615c1.574-.646 3.3-.906 5.028-.906 3.634-.076 5.905 1.578 5.815 4.072.06 2.04-1.666 3.235-2.877 3.616.788.172 1.453.367 1.999.754 1.09.734 1.515 1.96 1.515 3.064 0 2.033-1.092 3.426-2.667 4.195-1.575.72-3.27.887-4.664.887M134.636 39.163c-5.176 0-8.054-3.182-8.054-8.35 0-5.145 3.06-8.238 8.114-8.238 1.395 0 2.394.168 3.695.643l-.484 2.878c-.847-.428-1.575-.674-2.484-.674-3.029 0-4.328 2.5-4.328 5.257 0 2.8 1.27 5.588 4.358 5.588.94 0 1.695-.196 2.515-.625l.332 2.924c-1.24.43-2.331.597-3.664.597M188.728 36.267s4.059.86 4.059-3.045c0-.723-.122-1.274-.394-1.642-.455-.808-1.485-.95-2.576-.95h-.636c-.06 0-.211 0-.453.049v5.588zm-4.45 2.56V22.958h4.45v5.007c.938-.043 1.545-.043 1.786-.043 2.06 0 3.605.338 4.543 1.054 1.122.857 1.88 2.376 1.818 4.032-.121 5.175-5.301 6.155-8.117 6.155-2.938 0-4.48-.336-4.48-.336zM150.689 30.384c1.878-.592 2.817-1.787 2.817-3.597 0-.812-.181-1.456-.515-2.009-.363-.581-.97-1.098-1.726-1.39-1.424-.645-3.392-.812-5.119-.812-3.301 0-5.39.383-5.39.383v15.867s2.21.338 5.39.338c3.15 0 7.937-.798 8.058-4.839v-.171c.09-1.73-1.001-3.432-3.515-3.77zm-4.452 1.657c.424 0 .88 0 1.423.049.545.03.999.193 1.424.549.425.29.635.84.635 1.566 0 1.745-1.514 2.369-3.482 2.369-.545 0-1.121-.03-1.121-.03V32.04h1.12zm-1.121-2.465v-4.368s.455-.044 1.575-.044c2.15 0 2.575 1.269 2.575 2.084 0 1.563-.94 2.328-3.12 2.328h-1.03zM163.014 22.576c-3.302 0-7.419.551-7.419 4.836 0 2.256 1.091 3.646 3.269 4.246l-4.207 7.169h4.662l3.362-6.328h1.333v6.328h4.421V22.958s-2.15-.382-5.42-.382zm1 7.257h-1.12c-2.151 0-3.03-.716-3.03-2.51 0-1.822 1.393-2.238 2.515-2.238 1.089 0 1.635.08 1.635.08v4.668zM54.165 38.826V16.94h16.477v21.887h-4.786V20.033h-6.875v18.793zM73.278 45.23V23.388c3.934-.812 14.596-3.05 14.596 6.618 0 2.542-.666 4.747-1.968 6.26-2.545 3.112-6.725 2.774-8.089 2.224v6.74h-4.539zm10.145-14.888c0-5.943-4.09-5.422-5.606-5.055v10.355c.608.136 5.606 2.08 5.606-5.3zM96.901 39.163c-5.18 0-7.421-3.306-7.421-8.27 0-5.134 2.666-8.318 7.875-8.318 1.848 0 3.362.43 4.483 1.289 1.118.84 1.874 1.895 2.208 3.168a12.51 12.51 0 0 1 .576 3.74c0 5.342-2.241 8.391-7.72 8.391m.332-2.497c1.302 0 2.18-1.072 2.544-2.462.335-1.442.394-2.453.394-3.525 0-1.531-.181-2.666-.605-3.817-.456-1.194-1.424-1.777-2.333-1.777-1.303 0-2.24.939-2.636 2.237-.424 1.243-.514 2.512-.514 3.357 0 1.96.454 5.987 3.15 5.987M105.561 38.826l1.635-15.868h5.21l3.24 10.815 3.212-10.815h5.15l1.513 15.868h-4.149l-.879-11.414-3.392 11.414h-3.605l-3.452-11.503-.878 11.503z"/>
    </g>
</svg>
